<svg xmlns="http://www.w3.org/2000/svg" viewBox="0 0 100 100" width="512" height="512"><title>LabTake</title><rect width="100" height="100" rx="0" fill="#0b3a3a"/><g transform="translate(10.00 12.00) scale(0.800)">
  <defs>
    <clipPath id="lt-in-icon-square.svg"><path d="M42 16 H58 V39 L78 77 Q81 84 73 85 H27 Q19 84 22 77 L42 39 Z"/></clipPath>
  </defs>
  <path d="M40 13 H60 V38 L80 76 Q85 88 73 88 H27 Q15 88 20 76 L40 38 Z" fill="#ffffff"/>
  <g clip-path="url(#lt-in-icon-square.svg)">
    <path d="M10 58 Q30 52 50 58 T90 58 V100 H10 Z" fill="#14b8a6"/>
    <path d="M10 64 Q30 58 50 64 T90 64 V100 H10 Z" fill="#0e9384"/>
    <circle cx="41" cy="73" r="4" fill="#ffffff" opacity=".85"/>
    <circle cx="55" cy="79" r="2.6" fill="#ffffff" opacity=".85"/>
    <circle cx="61" cy="68" r="1.8" fill="#ffffff" opacity=".85"/>
  </g>
  <path d="M40 13 H60 V38 L80 76 Q85 88 73 88 H27 Q15 88 20 76 L40 38 Z" fill="none" stroke="#10232b" stroke-width="6" stroke-linejoin="round"/>
  <rect x="34" y="7" width="32" height="9" rx="3.5" fill="#f5a524" stroke="#10232b" stroke-width="5"/>
  <path d="M44 25 H50 M44 32 H52" stroke="#10232b" stroke-width="3.5" stroke-linecap="round"/>
</g></svg>